<?xml version="1.0" encoding="UTF-8" standalone="no"?>
<!-- Created with Inkscape (http://www.inkscape.org/) -->

<svg
   xmlns:dc="http://purl.org/dc/elements/1.1/"
   xmlns:cc="http://creativecommons.org/ns#"
   xmlns:rdf="http://www.w3.org/1999/02/22-rdf-syntax-ns#"
   xmlns:svg="http://www.w3.org/2000/svg"
   xmlns="http://www.w3.org/2000/svg"
   xmlns:sodipodi="http://sodipodi.sourceforge.net/DTD/sodipodi-0.dtd"
   xmlns:inkscape="http://www.inkscape.org/namespaces/inkscape"
   width="297mm"
   height="210mm"
   viewBox="0 0 1052.3622 744.09448"
   id="svg2"
   version="1.1"
   inkscape:version="0.91 r13725"
   sodipodi:docname="nukReal-sketch.svg">
  <defs
     id="defs4">
    <inkscape:perspective
       sodipodi:type="inkscape:persp3d"
       inkscape:vp_x="0 : 526.18109 : 1"
       inkscape:vp_y="0 : 999.99998 : 0"
       inkscape:vp_z="744.0945 : 526.18109 : 1"
       inkscape:persp3d-origin="372.04724 : 350.78739 : 1"
       id="perspective4188" />
  </defs>
  <sodipodi:namedview
     id="base"
     pagecolor="#ffffff"
     bordercolor="#666666"
     borderopacity="1.0"
     inkscape:pageopacity="0.0"
     inkscape:pageshadow="2"
     inkscape:zoom="0.49497475"
     inkscape:cx="671.30627"
     inkscape:cy="170.92917"
     inkscape:document-units="px"
     inkscape:current-layer="layer1"
     showgrid="false"
     inkscape:window-width="1280"
     inkscape:window-height="736"
     inkscape:window-x="0"
     inkscape:window-y="27"
     inkscape:window-maximized="1" />
  <metadata
     id="metadata7">
    <rdf:RDF>
      <cc:Work
         rdf:about="">
        <dc:format>image/svg+xml</dc:format>
        <dc:type
           rdf:resource="http://purl.org/dc/dcmitype/StillImage" />
        <dc:title></dc:title>
      </cc:Work>
    </rdf:RDF>
  </metadata>
  <g
     inkscape:label="Layer 1"
     inkscape:groupmode="layer"
     id="layer1"
     transform="translate(0,-308.26772)">
    <flowRoot
       inkscape:export-ydpi="92"
       inkscape:export-xdpi="92"
       transform="matrix(0.58659578,0,0,0.58659578,194.50174,757.42508)"
       style="font-style:normal;font-variant:normal;font-weight:600;font-stretch:normal;font-size:125px;font-family:sans-serif;-inkscape-font-specification:'sans-serif Semi-Bold';fill:#cccccc;stroke:#cccccc;stroke-width:0.99921262;stroke-linejoin:round;stroke-miterlimit:4;stroke-dasharray:none;stroke-opacity:1;fill-opacity:1;"
       id="flowRoot4168"
       xml:space="preserve"><flowRegion
         id="flowRegion4170"><rect
           style="fill:#cccccc;stroke:#cccccc;stroke-opacity:1;fill-opacity:1;"
           y="211.91528"
           x="240.41631"
           height="165.66504"
           width="660.63977"
           id="rect4172" /></flowRegion><flowPara
         style="text-align:center;text-anchor:middle;fill:#cccccc;stroke:#cccccc;stroke-opacity:1;fill-opacity:1;"
         id="flowPara4174">nukReal</flowPara></flowRoot>    <path
       style="fill:#cccccc;stroke:#cccccc;stroke-width:0.99921262;stroke-linejoin:round;stroke-miterlimit:4;stroke-dasharray:none"
       d="m 449.66307,633.90713 62.06384,-3.02475 c 0,0 8.04516,10.01012 20.89736,10.18487 12.29445,0.16717 22.42643,-10.18487 22.42643,-10.18487 l 61.84092,3.02475 0,46.58087 -25.22844,2.5974 0,110.55747 -116.77166,0 0,-112.59445 -25.22845,-0.56042 z"
       id="rect4136"
       inkscape:connector-curvature="0"
       sodipodi:nodetypes="ccsccccccccc"
       inkscape:export-xdpi="92"
       inkscape:export-ydpi="92" />
    <flowRoot
       xml:space="preserve"
       id="flowRoot4138"
       style="font-style:normal;font-variant:normal;font-weight:600;font-stretch:normal;font-size:125px;font-family:sans-serif;-inkscape-font-specification:'sans-serif Semi-Bold';fill:#4d4d4d;stroke:#4d4d4d;stroke-width:1.98120022;stroke-linejoin:round;stroke-miterlimit:4;stroke-dasharray:none"
       transform="matrix(0.5045689,0,0,0.50412541,340.23059,365.47786)"
       inkscape:export-xdpi="92"
       inkscape:export-ydpi="92"><flowRegion
         id="flowRegion4140"
         style="stroke-width:1.98120022"><rect
           id="rect4142"
           width="309.10669"
           height="165.66504"
           x="240.41631"
           y="211.91528"
           style="fill:#4d4d4d;stroke:#4d4d4d;stroke-width:1.98120022" /></flowRegion><flowPara
         id="flowPara4144"
         style="fill:#4d4d4d;stroke:#4d4d4d;stroke-width:1.98120022">CET.</flowPara></flowRoot>    <path
       inkscape:export-ydpi="92"
       inkscape:export-xdpi="92"
       sodipodi:nodetypes="ccsccccccccc"
       inkscape:connector-curvature="0"
       id="path4206"
       d="m 449.66307,633.90713 62.06384,-3.02475 c 0,0 8.04516,10.01012 20.89736,10.18487 12.29445,0.16717 22.42643,-10.18487 22.42643,-10.18487 l 61.84092,3.02475 0,46.58087 -25.22844,2.5974 0,110.55747 -116.77166,0 0,-112.59445 -25.22845,-0.56042 z"
       style="fill:#cccccc;stroke:#cccccc;stroke-width:0.99921262;stroke-linejoin:round;stroke-miterlimit:4;stroke-dasharray:none" />
    <flowRoot
       inkscape:export-ydpi="92"
       inkscape:export-xdpi="92"
       transform="matrix(0.5045689,0,0,0.50412541,340.23059,365.47786)"
       style="font-style:normal;font-variant:normal;font-weight:600;font-stretch:normal;font-size:125px;font-family:sans-serif;-inkscape-font-specification:'sans-serif Semi-Bold';fill:#4d4d4d;stroke:#4d4d4d;stroke-width:1.98120022;stroke-linejoin:round;stroke-miterlimit:4;stroke-dasharray:none"
       id="flowRoot4208"
       xml:space="preserve"><flowRegion
         id="flowRegion4210"
         style="stroke-width:1.98120022"><rect
           style="fill:#4d4d4d;stroke:#4d4d4d;stroke-width:1.98120022"
           y="211.91528"
           x="240.41631"
           height="165.66504"
           width="309.10669"
           id="rect4212" /></flowRegion><flowPara
         style="fill:#4d4d4d;stroke:#4d4d4d;stroke-width:1.98120022"
         id="flowPara4214">CET.</flowPara></flowRoot>    <path
       style="fill:#cccccc;stroke:#cccccc;stroke-width:0.99921262;stroke-linejoin:round;stroke-miterlimit:4;stroke-dasharray:none"
       d="m 761.08148,633.90713 62.06384,-3.02475 c 0,0 8.04515,10.01012 20.89737,10.18487 12.29443,0.16717 22.42643,-10.18487 22.42643,-10.18487 l 61.84092,3.02475 0,46.58087 -25.22844,2.5974 0,110.55747 -116.77168,0 0,-112.59445 -25.22844,-0.56042 z"
       id="path4176"
       inkscape:connector-curvature="0"
       sodipodi:nodetypes="ccsccccccccc"
       inkscape:export-xdpi="92"
       inkscape:export-ydpi="92" />
    <path
       sodipodi:type="spiral"
       style="fill:#333333;stroke:#ffffff;stroke-width:1.5792073;stroke-linejoin:round;stroke-miterlimit:4;stroke-dasharray:none"
       id="path4186"
       sodipodi:cx="1114.9631"
       sodipodi:cy="290.13293"
       sodipodi:expansion="1.618"
       sodipodi:revolution="3.1415"
       sodipodi:radius="88.84848"
       sodipodi:argument="-19.660589"
       sodipodi:t0="0"
       d="m 1114.9631,290.13293 c 0.5029,-0.52936 1.0602,0.70822 1.0728,1.01909 0.085,2.0946 -2.6243,2.73408 -4.2008,2.27362 -3.8982,-1.13854 -4.7141,-6.04933 -3.2175,-9.32098 2.7546,-6.0217 10.5996,-7.05392 15.9471,-4.07867 8.473,4.71415 9.7311,16.11959 4.9002,23.88361 -6.99,11.23391 -22.5115,12.72337 -33.0055,5.70093 -14.2863,-9.56022 -16.0124,-29.70613 -6.4914,-43.22298 12.4073,-17.6144 37.651,-19.58282 54.4672,-7.2778 21.2048,15.5164 23.4215,46.30436 8.0642,66.68266 -18.8752,25.04627 -55.6317,27.51759 -79.8236,8.85351 -29.129,-22.47302 -31.8613,-65.60403 -9.6477,-93.85126 26.3008,-33.44441 76.1965,-36.44427 108.7321,-10.44807 20.1028,16.06228 31.6848,41.06595 31.781,66.71281"
       transform="matrix(0.5045689,0,0,0.50412541,276.58685,365.47786)" />
    <path
       inkscape:export-ydpi="92"
       inkscape:export-xdpi="92"
       sodipodi:nodetypes="ccsccccccccc"
       inkscape:connector-curvature="0"
       id="path4218"
       d="m 761.08148,633.90713 62.06384,-3.02475 c 0,0 8.04515,10.01012 20.89737,10.18487 12.29443,0.16717 22.42643,-10.18487 22.42643,-10.18487 l 61.84092,3.02475 0,46.58087 -25.22844,2.5974 0,110.55747 -116.77168,0 0,-112.59445 -25.22844,-0.56042 z"
       style="fill:#cccccc;stroke:#cccccc;stroke-width:0.99921262;stroke-linejoin:round;stroke-miterlimit:4;stroke-dasharray:none" />
    <path
       d="m 1114.9631,290.13293 c 0.5029,-0.52936 1.0602,0.70822 1.0728,1.01909 0.085,2.0946 -2.6243,2.73408 -4.2008,2.27362 -3.8982,-1.13854 -4.7141,-6.04933 -3.2175,-9.32098 2.7546,-6.0217 10.5996,-7.05392 15.9471,-4.07867 8.473,4.71415 9.7311,16.11959 4.9002,23.88361 -6.99,11.23391 -22.5115,12.72337 -33.0055,5.70093 -14.2863,-9.56022 -16.0124,-29.70613 -6.4914,-43.22298 12.4073,-17.6144 37.651,-19.58282 54.4672,-7.2778 21.2048,15.5164 23.4215,46.30436 8.0642,66.68266 -18.8752,25.04627 -55.6317,27.51759 -79.8236,8.85351 -29.129,-22.47302 -31.8613,-65.60403 -9.6477,-93.85126 26.3008,-33.44441 76.1965,-36.44427 108.7321,-10.44807 20.1028,16.06228 31.6848,41.06595 31.781,66.71281"
       sodipodi:t0="0"
       sodipodi:argument="-19.660589"
       sodipodi:radius="88.84848"
       sodipodi:revolution="3.1415"
       sodipodi:expansion="1.618"
       sodipodi:cy="290.13293"
       sodipodi:cx="1114.9631"
       id="path4220"
       style="fill:#333333;stroke:#ffffff;stroke-width:1.5792073;stroke-linejoin:round;stroke-miterlimit:4;stroke-dasharray:none"
       sodipodi:type="spiral"
       transform="matrix(0.5045689,0,0,0.50412541,276.58685,365.47786)" />
    <path
       inkscape:export-ydpi="92"
       inkscape:export-xdpi="92"
       sodipodi:nodetypes="ccsccccccccc"
       inkscape:connector-curvature="0"
       id="path4166"
       d="m 136.19071,633.90713 62.06384,-3.02475 c 0,0 8.04516,10.01012 20.89736,10.18487 12.29445,0.16717 22.42643,-10.18487 22.42643,-10.18487 l 61.84092,3.02475 0,46.58087 -25.22844,2.5974 0,110.55747 -116.77166,0 0,-112.59445 -25.22845,-0.56042 z"
       style="fill:#cccccc;stroke:#cccccc;stroke-width:0.99921262;stroke-linejoin:round;stroke-miterlimit:4;stroke-dasharray:none" />
    <path
       sodipodi:type="star"
       style="fill:#333333;stroke:#ffffff;stroke-width:1.62005651;stroke-linejoin:round;stroke-miterlimit:4;stroke-dasharray:none"
       id="path4204"
       sodipodi:sides="7"
       sodipodi:cx="-203.37415"
       sodipodi:cy="663.57312"
       sodipodi:r1="62.503853"
       sodipodi:r2="6.2503853"
       sodipodi:arg1="0.9167136"
       sodipodi:arg2="1.3655126"
       inkscape:flatsided="false"
       inkscape:rounded="0.7"
       inkscape:randomized="1.618"
       d="m -127.6291,762.50457 c 10.08534,6.60735 -161.87782,-62.38623 -169.05481,-31.00883 -7.17699,31.3774 100.23665,40.35327 79.95519,-5.07188 -20.28145,-45.42515 -38.16742,-194.56432 -69.73289,-149.12858 -31.56548,45.43575 -105.9986,99.36682 -71.69876,115.47996 34.29984,16.11315 79.74599,31.99956 48.43217,-28.04509 -31.31381,-60.04466 -70.6178,-110.16361 -24.77475,-116.48809 45.84306,-6.32448 112.38418,136.8051 166.27397,125.39372 53.88978,-11.41138 -148.62012,2.78961 -146.40305,-13.23422 2.21707,-16.02382 235.033219,112.89488 196.10857,67.7462 -38.92465,-45.14868 -17.7508,-92.79855 10.86495,-133.10905 28.615743,-40.31051 -189.34695,134.12572 -179.19338,162.07627 10.15356,27.95055 38.73878,-221.51211 76.54805,-175.44122 37.80926,46.0709 3.52475,76.31194 7.83179,101.09376 4.30705,24.78181 64.75761,73.1297 74.84295,79.73705 z"
       inkscape:transform-center-x="18.878441"
       inkscape:transform-center-y="-2.5071423"
       transform="matrix(0.35712532,0,0,0.35674039,304.09793,272.76125)" />
    <path
       style="fill:#cccccc;stroke:#cccccc;stroke-width:0.99921262;stroke-linejoin:round;stroke-miterlimit:4;stroke-dasharray:none"
       d="m 136.19071,633.90713 62.06384,-3.02475 c 0,0 8.04516,10.01012 20.89736,10.18487 12.29445,0.16717 22.42643,-10.18487 22.42643,-10.18487 l 61.84092,3.02475 0,46.58087 -25.22844,2.5974 0,110.55747 -116.77166,0 0,-112.59445 -25.22845,-0.56042 z"
       id="path4216"
       inkscape:connector-curvature="0"
       sodipodi:nodetypes="ccsccccccccc"
       inkscape:export-xdpi="92"
       inkscape:export-ydpi="92" />
    <path
       transform="matrix(0.35712532,0,0,0.35674039,304.09793,272.76125)"
       inkscape:transform-center-y="-2.5071423"
       inkscape:transform-center-x="18.878441"
       d="m -127.6291,762.50457 c 10.08534,6.60735 -161.87782,-62.38623 -169.05481,-31.00883 -7.17699,31.3774 100.23665,40.35327 79.95519,-5.07188 -20.28145,-45.42515 -38.16742,-194.56432 -69.73289,-149.12858 -31.56548,45.43575 -105.9986,99.36682 -71.69876,115.47996 34.29984,16.11315 79.74599,31.99956 48.43217,-28.04509 -31.31381,-60.04466 -70.6178,-110.16361 -24.77475,-116.48809 45.84306,-6.32448 112.38418,136.8051 166.27397,125.39372 53.88978,-11.41138 -148.62012,2.78961 -146.40305,-13.23422 2.21707,-16.02382 235.033219,112.89488 196.10857,67.7462 -38.92465,-45.14868 -17.7508,-92.79855 10.86495,-133.10905 28.615743,-40.31051 -189.34695,134.12572 -179.19338,162.07627 10.15356,27.95055 38.73878,-221.51211 76.54805,-175.44122 37.80926,46.0709 3.52475,76.31194 7.83179,101.09376 4.30705,24.78181 64.75761,73.1297 74.84295,79.73705 z"
       inkscape:randomized="1.618"
       inkscape:rounded="0.7"
       inkscape:flatsided="false"
       sodipodi:arg2="1.3655126"
       sodipodi:arg1="0.9167136"
       sodipodi:r2="6.2503853"
       sodipodi:r1="62.503853"
       sodipodi:cy="663.57312"
       sodipodi:cx="-203.37415"
       sodipodi:sides="7"
       id="path4222"
       style="fill:#333333;stroke:#ffffff;stroke-width:1.62005651;stroke-linejoin:round;stroke-miterlimit:4;stroke-dasharray:none"
       sodipodi:type="star" />
  </g>
</svg>
